<svg width="33" height="21" viewBox="0 0 33 21" fill="none" xmlns="http://www.w3.org/2000/svg">
<path d="M21.1971 17.8667H12.4478V2.14293H21.1973L21.1971 17.8667Z" fill="#EEEEEE"/>
<path d="M33.0001 10.005C33.0001 15.5279 28.5236 20.0049 23.0014 20.0049C20.7593 20.0082 18.5818 19.2549 16.821 17.8669C19.1473 16.0358 20.6407 13.1947 20.6407 10.005C20.6407 6.81522 19.1473 3.9741 16.821 2.14305C18.5817 0.755043 20.7592 0.0017157 23.0012 0.0049696C28.5235 0.0049696 32.9999 4.48205 32.9999 10.005" fill="white"/>
<path d="M13.0022 10.005C13.0022 6.81539 14.4957 3.9741 16.8212 2.14305C15.0609 0.755001 12.8836 0.00165764 10.6419 0.00496998C5.11962 0.00496998 0.643188 4.48205 0.643188 10.005C0.643188 15.5279 5.11962 20.0049 10.6419 20.0049C12.8837 20.0083 15.061 19.255 16.8214 17.8669C14.496 16.0361 13.0022 13.1947 13.0022 10.005Z" fill="#9E9E9E"/>
</svg>
