<svg width="24" height="24" viewBox="0 0 24 24" fill="none" xmlns="http://www.w3.org/2000/svg">
<path d="M18.2655 0.212402L21.8761 0.743376L20.0708 3.29205L21.4513 3.71683C21.8392 3.89269 21.8033 4.05191 21.6637 4.354L16.354 10.9381C16.354 10.9381 14.7611 9.98231 14.3363 9.98231C13.9115 9.98231 13.3805 11.2567 13.3805 11.2567L11.8938 10.8319C10.6738 12.2048 10.1586 12.5244 9.45134 12.531L5.41594 9.98231C5.31542 9.1571 5.35091 8.70963 5.73452 7.96461C6.19065 7.79564 6.4465 7.77786 6.90267 7.96461L8.2832 7.32745C8.2832 7.32745 9.87612 8.60178 10.3009 8.2832C10.7257 7.96461 15.0797 2.44249 15.0797 2.44249H16.6726L18.2655 0.212402Z" fill="url(#paint0_linear_1319_201)"/>
<path d="M6.79639 11.531C6.79639 11.531 11.2566 14.0797 11.5751 14.5045C11.6229 14.5681 11.3009 14.6172 11.2566 14.6591C11.2344 14.6661 9.71464 14.6175 8.38931 15.9912L6.79639 14.9292C7.18032 13.8581 7.28754 13.1855 6.79639 11.531Z" fill="url(#paint1_linear_1319_201)"/>
<path d="M6.37157 14.9912C7.02127 15.2427 7.32044 15.4792 7.7521 16.0532C7.65302 16.778 7.67078 17.1697 7.7521 17.8585L2.22998 23.062L3.61051 20.8319L3.07954 20.6195L4.99104 15.6284C5.59584 15.474 5.89599 15.3312 6.37157 14.9912Z" fill="url(#paint2_linear_1319_201)"/>
<defs>
<linearGradient id="paint0_linear_1319_201" x1="16.2158" y1="0.313553" x2="16.2158" y2="10.9046" gradientUnits="userSpaceOnUse">
<stop stop-color="white"/>
<stop offset="1" stop-color="white" stop-opacity="0.75"/>
</linearGradient>
<linearGradient id="paint1_linear_1319_201" x1="3.89764" y1="3.32263" x2="3.89764" y2="21.3046" gradientUnits="userSpaceOnUse">
<stop stop-color="white"/>
<stop offset="1" stop-color="white" stop-opacity="0.75"/>
</linearGradient>
<linearGradient id="paint2_linear_1319_201" x1="16.2158" y1="13.7286" x2="16.2158" y2="24.3134" gradientUnits="userSpaceOnUse">
<stop stop-color="white"/>
<stop offset="1" stop-color="white" stop-opacity="0.75"/>
</linearGradient>
</defs>
</svg>
