<svg width="50" height="17" viewBox="0 0 50 17" fill="none" xmlns="http://www.w3.org/2000/svg">
<path d="M17.7538 16.0368L20.2801 1.21615H24.3195L21.7924 16.0368H17.7538ZM36.368 1.54129C35.2088 1.12137 33.9843 0.910662 32.7514 0.918972C28.7649 0.918972 25.9565 2.92659 25.9324 5.80451C25.9104 7.93157 27.9377 9.11796 29.4681 9.82572C31.0386 10.5516 31.5665 11.0144 31.5589 11.6624C31.5491 12.6545 30.3045 13.1074 29.1453 13.1074C27.5301 13.1074 26.6726 12.8806 25.3471 12.3309L24.8276 12.0957L24.2612 15.4092C25.2034 15.822 26.9464 16.1805 28.7551 16.1986C32.9964 16.1986 35.7495 14.2144 35.7813 11.1414C35.7964 9.45746 34.7227 8.17579 32.3937 7.11944C30.9835 6.4389 30.1199 5.97764 30.129 5.28425C30.129 4.6695 30.8602 4.01167 32.4398 4.01167C33.4748 3.98851 34.5032 4.18166 35.4592 4.57879L35.8206 4.74966L36.368 1.54129ZM46.7455 1.21615H43.6377C42.6751 1.21615 41.9545 1.47931 41.5318 2.43963L35.5582 15.9612H39.81C39.81 15.9612 40.4906 14.163 40.6471 13.7683L45.7413 13.7744C45.8601 14.2855 46.2253 15.9612 46.2253 15.9612H50L46.7455 1.21615ZM41.804 10.7437C42.1375 9.89076 43.4116 6.60601 43.4116 6.60601C43.3874 6.64533 43.7428 5.74853 43.9462 5.19276L44.2192 6.46917C44.2192 6.46917 44.992 10.0027 45.153 10.7437H41.804ZM14.3261 1.21615L10.3851 11.2874L9.96538 9.24047C9.23191 6.88127 6.94606 4.32548 4.39026 3.04606L7.9941 15.9612L12.2528 15.9566L18.5901 1.21615H14.3065" fill="url(#paint0_linear_1208_72)"/>
<path d="M6.53014 1.21577H0.0521702L0 1.52351C5.0617 2.74924 8.41068 5.71035 9.80124 9.2673L8.38648 2.46191C8.14225 1.52504 7.43451 1.24526 6.55813 1.21274" fill="url(#paint1_linear_1208_72)"/>
<defs>
<linearGradient id="paint0_linear_1208_72" x1="27.1951" y1="0.918736" x2="27.1951" y2="16.1986" gradientUnits="userSpaceOnUse">
<stop stop-color="white"/>
<stop offset="1" stop-color="white" stop-opacity="0.75"/>
</linearGradient>
<linearGradient id="paint1_linear_1208_72" x1="4.90062" y1="1.21274" x2="4.90062" y2="9.2673" gradientUnits="userSpaceOnUse">
<stop stop-color="white"/>
<stop offset="1" stop-color="white" stop-opacity="0.75"/>
</linearGradient>
</defs>
</svg>
